<svg width="900" height="900" viewBox="0 0 900 900" fill="none" xmlns="http://www.w3.org/2000/svg">
  <rect width="900" height="900" fill="#3F5E3F"/>
  <path d="M0 610C142 544 220 566 348 610C487 658 591 691 900 576V900H0V610Z" fill="#C97B4A"/>
  <path d="M0 674C170 604 285 630 414 680C544 730 674 764 900 668V900H0V674Z" fill="#F4EFE6"/>
  <circle cx="716" cy="184" r="92" fill="#F4EFE6" opacity=".92"/>
  <path d="M140 633L450 310L760 633H140Z" fill="#263926"/>
  <path d="M215 633L450 390L685 633H215Z" fill="#F4EFE6"/>
  <path d="M310 633V507C310 493.745 320.745 483 334 483H566C579.255 483 590 493.745 590 507V633H310Z" fill="#3F5E3F"/>
  <rect x="363" y="528" width="66" height="105" rx="8" fill="#C97B4A"/>
  <rect x="471" y="528" width="66" height="64" rx="8" fill="#C97B4A"/>
  <path d="M186 704C226 638 278 638 319 704H186Z" fill="#658765"/>
  <path d="M585 710C634 618 705 618 754 710H585Z" fill="#658765"/>
  <path d="M141 709C174 655 215 655 248 709H141Z" fill="#8FAB8F"/>
  <path d="M656 322C656 322 598 357 585 420C572 483 612 524 612 524C612 524 670 489 683 426C696 363 656 322 656 322Z" fill="#8FAB8F"/>
  <path d="M624 520C624 520 610 447 653 351" stroke="#263926" stroke-width="10" stroke-linecap="round"/>
  <path d="M240 360C240 360 193 388 183 438C173 489 205 522 205 522C205 522 252 494 262 443C272 393 240 360 240 360Z" fill="#8FAB8F"/>
  <path d="M214 521C214 521 203 462 237 384" stroke="#263926" stroke-width="9" stroke-linecap="round"/>
  <circle cx="238" cy="696" r="28" fill="#C97B4A"/>
  <path d="M238 724V790" stroke="#263926" stroke-width="18" stroke-linecap="round"/>
  <path d="M195 786C220 760 256 760 282 786" stroke="#263926" stroke-width="18" stroke-linecap="round"/>
  <path d="M186 744C219 736 258 736 290 744" stroke="#263926" stroke-width="16" stroke-linecap="round"/>
  <circle cx="672" cy="696" r="28" fill="#C97B4A"/>
  <path d="M672 724V790" stroke="#263926" stroke-width="18" stroke-linecap="round"/>
  <path d="M629 786C654 760 690 760 716 786" stroke="#263926" stroke-width="18" stroke-linecap="round"/>
  <path d="M620 744C653 736 692 736 724 744" stroke="#263926" stroke-width="16" stroke-linecap="round"/>
  <path d="M376 729H524" stroke="#263926" stroke-width="18" stroke-linecap="round"/>
  <path d="M450 662V789" stroke="#263926" stroke-width="20" stroke-linecap="round"/>
  <path d="M405 789C433 760 467 760 495 789" stroke="#263926" stroke-width="18" stroke-linecap="round"/>
  <circle cx="450" cy="626" r="34" fill="#C97B4A"/>
  <path d="M132 186C175 151 217 151 260 186" stroke="#F4EFE6" stroke-width="18" stroke-linecap="round" opacity=".45"/>
  <path d="M84 230C148 178 212 178 276 230" stroke="#F4EFE6" stroke-width="14" stroke-linecap="round" opacity=".25"/>
  <path d="M580 256C625 220 669 220 714 256" stroke="#F4EFE6" stroke-width="16" stroke-linecap="round" opacity=".28"/>
</svg>
